<svg viewBox="0 0 40 40" fill="none" xmlns="http://www.w3.org/2000/svg">
<g clip-path="url(#clip0_102_2)">
<path d="M11.2751 6.71624C7.94292 8.24895 9.7361 11.0337 12.2715 10.8988L30.2305 7.96651L27.6497 6.83317L28.8947 6.13158L26.1857 5.35804L27.1288 4.10775C23.2326 4.33862 14.6072 5.18353 11.2751 6.71624Z" stroke="black"/>
<path d="M9.45834 8.8601V29.7178C9.45836 32.2614 9.45834 33.3425 12.2083 32.7702M12.2083 32.7702V11.4037M12.2083 32.7702C21.8333 30.7671 24.5833 29.7178 30.5417 27.6829V8.35138" stroke="black"/>
<ellipse cx="16.7917" cy="17.5084" rx="0.458333" ry="0.508725" fill="black"/>
<ellipse cx="22" cy="23.5" rx="1" ry="0.5" transform="rotate(-13.6266 22 23.5)" fill="black"/>
<ellipse cx="25.0416" cy="16.491" rx="0.458333" ry="0.508725" fill="black"/>
<ellipse cx="25.5" cy="18.5259" rx="0.916666" ry="0.508725" fill="#FA93B8" fill-opacity="0.67"/>
<ellipse cx="16.3333" cy="19.5433" rx="0.916666" ry="0.508725" fill="#FA93B8" fill-opacity="0.67"/>
<path d="M26 29C25.6853 30.0429 26 32.1287 26 33.0673M26 33.0673C26 34.1954 25.5279 35.2574 24.1116 34.9445C23.6395 33.693 24.741 33.5887 26 33.0673Z" stroke="black"/>
<path d="M17 32C16.6853 33.0429 17 35.1287 17 36.0673M17 36.0673C17 37.1954 16.5279 38.2574 15.1116 37.9445C14.6395 36.693 15.741 36.5887 17 36.0673Z" stroke="black"/>
</g>
<defs>
<clipPath id="clip0_102_2">
<rect width="40" height="40" fill="white"/>
</clipPath>
</defs>
</svg>
