<svg viewBox="0 0 73 75" fill="none" xmlns="http://www.w3.org/2000/svg">
<g clip-path="url(#clip0_0_1)">
<path d="M25.1612 8.4122C22.2613 8.55499 16.9575 25.9906 16.5 29L23 28.5L29.5 28L42.2923 27.5L43.2892 38L43.2892 44.4203C44.9772 45.3328 46.9862 45.674 46.3625 47.5498C45.8732 49.0214 44.5796 49.6451 42.2923 48.3576C39.7367 47.3323 34.3386 45.8184 33.1901 47.9658C31.7545 50.6499 41.8505 52.953 45.7627 54.2538C49.6748 55.5546 51.6152 54.619 53.6975 51.6229C55.3634 49.2261 52.7564 44.1089 51.8047 40.9822L49.8171 37.1599L47.4982 32.7004C44.6746 26.4924 50.2384 10.865 45.6529 10.4834C41.4252 10.1315 41.1821 21.6428 40.4154 22.9686C39.9895 23.7052 39.4689 25.8154 34.9257 26.4124C30.3667 25.4235 29.8382 25.3795 27.2433 21.7504C24.2777 17.6029 31.2991 8.10998 25.1612 8.4122Z" fill="black" stroke="black"/>
<path d="M25.9995 45.014L30.1226 45.0002" stroke="black"/>
<path d="M21.2231 36.6311C20.9857 33.6405 23.0058 33.8145 23.9763 33.4031C24.807 33.3372 26.516 33.8034 26.7059 36.1959C26.8958 38.5884 25.2555 38.9861 24.4116 38.8859C23.4015 38.7989 21.3497 38.2261 21.2231 36.6311Z" stroke="black"/>
<path d="M21.2297 36.7139C21.144 35.6343 21.8785 35.6967 22.2315 35.5479C22.5335 35.524 23.1549 35.6919 23.2234 36.5556C23.292 37.4193 22.6954 37.5633 22.3886 37.5273C22.0213 37.4961 21.2754 37.2897 21.2297 36.7139Z" fill="black" stroke="black"/>
<path d="M30.198 36.7661C30.1265 33.7669 32.1339 34.0525 33.1257 33.6954C33.9588 33.6756 35.6392 34.2357 35.6964 36.635C35.7536 39.0343 34.0938 39.3406 33.2567 39.1938C32.253 39.0511 30.2361 38.3656 30.198 36.7661Z" stroke="black"/>
<path d="M30.2 36.8491C30.1742 35.7663 30.9041 35.8693 31.2648 35.7403C31.5677 35.7331 32.1788 35.9352 32.1994 36.8014C32.2201 37.6676 31.6165 37.7783 31.3121 37.7253C30.9471 37.6738 30.2138 37.4265 30.2 36.8491Z" fill="black" stroke="black"/>
<path d="M12.5 28.0495C12.5 34.7162 12.0312 49.2 12.0312 50C12.0312 51 11.5312 52 14.5312 54C17.5312 56 36.5 56 39.5 55.5C42.5 55 44 30.0495 41.5 28.0495C39 26.0495 14.5313 31 13.0313 29.5C11.8313 28.3 12.8646 27 13.5313 26.5L26.0312 15" stroke="black"/>
<path d="M24.2409 18.4135C25.2135 16.9047 28.7823 14.7825 31.9998 15.0008C35.2173 15.2192 36.1319 22.3782 35.5 26.5" stroke="black"/>
<path d="M45.5137 59.2214L44 45L43 44.5L40 56.5L17.2086 55.6061L19.1088 59.3994C18.2254 62.0564 17.8994 63.0369 19.2702 63.6684C24.7526 65.14 37.7089 67.1646 45.6751 63.4904C53.6412 59.8161 48.8867 59.1135 45.5137 59.2214Z" fill="black" stroke="black"/>
<path d="M50.2399 56.9276C51.4369 56.8358 53.0874 56.9517 53.6894 57.6734C54.1211 58.1909 54.0138 59.0198 52.8138 60.3069" stroke="black"/>
<path d="M56.5236 54.518C57.4091 54.4859 58.6361 54.6053 59.1007 55.1075C59.4338 55.4675 59.3749 56.0243 58.517 56.8631" stroke="black"/>
<path d="M53.9821 55.9764C54.9165 55.7972 56.1868 55.7867 56.5993 56.4454C56.895 56.9177 56.7498 57.734 55.7237 59.0788" stroke="black"/>
</g>
<defs>
<clipPath id="clip0_0_1">
<rect width="73" height="75" fill="white"/>
</clipPath>
</defs>
</svg>
