<svg viewBox="0 0 73 75" fill="none" xmlns="http://www.w3.org/2000/svg">
<g clip-path="url(#clip0_0_1)">
<path d="M25.1612 8.4122C22.2613 8.55499 16.9575 25.9906 16.5 29L23 28.5L29.5 28L42.2923 27.5L43.2892 38L43.2892 44.4203C44.9772 45.3328 46.9862 45.674 46.3625 47.5498C45.8732 49.0214 44.5796 49.6451 42.2923 48.3576C39.7367 47.3323 34.3386 45.8184 33.1901 47.9658C31.7545 50.6499 41.8505 52.953 45.7627 54.2538C49.6748 55.5546 51.6152 54.619 53.6975 51.6229C55.3634 49.2261 52.7564 44.1089 51.8047 40.9822L49.8171 37.1599L47.4982 32.7004C44.6746 26.4924 50.2384 10.865 45.6529 10.4834C41.4252 10.1315 41.1821 21.6428 40.4154 22.9686C39.9895 23.7052 39.4689 25.8154 34.9257 26.4124C30.3667 25.4235 29.8382 25.3795 27.2433 21.7504C24.2777 17.6029 31.2991 8.10998 25.1612 8.4122Z" fill="black" stroke="black"/>
<path d="M24.0695 38.9411C21.0717 38.8247 21.4824 36.8392 21.1881 35.827C21.2204 34.9943 21.8846 33.3521 24.2828 33.4452C26.681 33.5383 26.8828 35.214 26.6839 36.0403C26.4786 37.0331 25.6683 39.0031 24.0695 38.9411Z" stroke="black"/>
<path d="M24.1524 38.9443C23.0702 38.9023 23.2187 38.1802 23.1125 37.8122C23.1243 37.5094 23.3642 36.9122 24.23 36.9458C25.0958 36.9794 25.1685 37.5887 25.0966 37.8892C25.0224 38.2502 24.7296 38.9667 24.1524 38.9443Z" fill="black" stroke="black"/>
<path d="M32.7392 39.2228C29.7761 38.754 30.4178 36.8306 30.2448 35.7908C30.375 34.9677 31.2281 33.4153 33.5986 33.7903C35.9691 34.1653 35.9721 35.8532 35.6773 36.6502C35.3564 37.6119 34.3196 39.4728 32.7392 39.2228Z" stroke="black"/>
<path d="M32.8212 39.2357C31.7515 39.0665 31.984 38.367 31.922 37.989C31.9693 37.6897 32.278 37.1249 33.1337 37.2603C33.9895 37.3957 33.9899 38.0093 33.8831 38.2992C33.7669 38.649 33.3917 39.326 32.8212 39.2357Z" fill="black" stroke="black"/>
<path d="M12.5 28.0495C12.5 34.7162 12.0312 49.2 12.0312 50C12.0312 51 11.5312 52 14.5312 54C17.5312 56 36.5 56 39.5 55.5C42.5 55 44 30.0495 41.5 28.0495C39 26.0495 14.5313 31 13.0313 29.5C11.8313 28.3 12.8646 27 13.5313 26.5L26.0312 15" stroke="black"/>
<path d="M24.2409 18.4135C25.2135 16.9047 28.7823 14.7825 31.9998 15.0008C35.2173 15.2192 36.1319 22.3782 35.5 26.5" stroke="black"/>
<path d="M45.5137 59.2214L44 45L43 44.5L40 56.5L17.2086 55.6061L19.1088 59.3994C18.2254 62.0564 17.8994 63.0369 19.2702 63.6684C24.7526 65.14 37.7089 67.1646 45.6751 63.4904C53.6412 59.8161 48.8867 59.1135 45.5137 59.2214Z" fill="black" stroke="black"/>
<path d="M23.5 45.5C29.1 42.3 31.1666 44.5 31.5 46" stroke="black"/>
<path d="M50.2399 56.9276C51.4369 56.8358 53.0874 56.9517 53.6894 57.6734C54.1211 58.1909 54.0138 59.0198 52.8138 60.3069" stroke="black"/>
<path d="M56.5236 54.518C57.4091 54.4859 58.6361 54.6053 59.1007 55.1075C59.4338 55.4675 59.3749 56.0243 58.517 56.8631" stroke="black"/>
<path d="M53.9821 55.9764C54.9165 55.7972 56.1868 55.7867 56.5993 56.4454C56.895 56.9177 56.7498 57.734 55.7237 59.0788" stroke="black"/>
</g>
<defs>
<clipPath id="clip0_0_1">
<rect width="73" height="75" fill="white"/>
</clipPath>
</defs>
</svg>
