<svg viewBox="0 0 412 508" fill="none" xmlns="http://www.w3.org/2000/svg">
<path d="M40.5 147L53.5 138L89.5 163.5C98 170.833 115.8 188.3 119 199.5C130.5 176 252 147 262.5 145C270.9 143.4 283 145.667 288 147L310.5 340.5L146.5 383.5C141.003 383.958 130.47 383.996 128.743 380.924C130.178 387.435 126.861 396.887 124 398C113.5 403.333 89.4 408.5 77 386.5C64.6 364.5 84.1667 350.667 95.5 346.5C86.5 336.333 67.5 314 63.5 306C58.5 296 33 144.5 33.5 142C33.9 140 38.3333 144.5 40.5 147Z" fill="white"/>
<path fill-rule="evenodd" clip-rule="evenodd" d="M148.574 2.25C146.14 5.968 145.525 12.361 147.447 13.956C150.051 16.117 150.529 15.219 153.686 2.25C154.121 0.459 153.806 0 152.14 0C150.988 0 149.383 1.012 148.574 2.25ZM190.258 18.117C186.119 19.312 175.106 29.592 169.404 37.583C161.407 48.789 154.509 66.315 150.905 84.585L148.75 95.505L144.636 98.002C137.043 102.611 117.934 122.756 112.78 131.584C108.043 139.699 102.477 153.17 100.006 162.5C99.278 165.25 98.547 167.669 98.382 167.876C98.217 168.082 96.907 166.854 95.47 165.147C92.138 161.186 74.909 147.873 62.976 140.038L53.759 133.986L50.13 136.147C38.896 142.838 40.322 142.398 37.372 140.078C34.189 137.575 31.443 137.404 30.578 139.656C30.229 140.567 31.054 146.979 32.411 153.906C33.769 160.833 36.487 175.725 38.451 187C40.415 198.275 43.649 215.032 45.639 224.237L49.256 240.974L45.736 244.87C41.067 250.039 38.967 258.757 40.109 268.238C40.552 271.921 41.599 276.259 42.436 277.877C44.349 281.576 50.454 286.665 54.635 288.044C58.557 289.339 58.72 289.754 59.574 300.681C60.259 309.44 60.299 309.544 65.493 316C68.368 319.575 75.284 327.572 80.861 333.77C86.437 339.969 91 345.413 91 345.868C91 346.324 89.17 347.522 86.933 348.53C81.837 350.828 75.954 356.469 73.7 361.219C63.732 382.226 79.138 404.474 104.58 405.809C114.632 406.336 118.916 405.041 124.678 399.729C127.838 396.816 129.438 394.3 130.539 390.513L132.054 385.304L139.277 385.765C145.671 386.173 148.417 385.682 163.195 381.485C172.377 378.877 180.495 376.976 181.235 377.26C181.976 377.544 183.386 381.19 184.37 385.362C187.622 399.156 200.563 417.145 214.017 426.573C218.267 429.551 222.284 432.637 222.942 433.43C223.896 434.579 223.296 437.169 219.985 446.186C214.917 459.99 212.4 464.394 210.131 463.428C198.593 458.516 190.992 462.399 191.005 473.2C191.008 475.893 191.849 478.871 193.255 481.167C197.149 487.529 215.628 501.572 225.685 505.813C235.207 509.829 237.16 508.897 248.627 494.869C259.018 482.157 276.24 463.213 277.5 463.109C278.05 463.063 281.84 465.263 285.923 467.996C290.006 470.73 295.406 473.698 297.923 474.592C300.44 475.485 303.755 476.679 305.288 477.245C309.355 478.746 310.343 481.455 310.426 491.338C310.494 499.515 310.687 500.329 313 502.203C315.113 503.916 316.4 504.136 321.306 503.624C328.403 502.884 333.475 499.643 341.42 490.768C348.62 482.725 352 476.049 352 469.869C352 465.535 351.468 464.483 345.75 457.528C332.405 441.294 328.723 436.317 326.366 431.327C323.311 424.856 323.779 422.713 330.029 414.558C336.639 405.933 340.366 398.91 343.59 389C346.087 381.326 346.396 378.769 346.776 362.687C347.18 345.592 347.089 344.53 344.534 336.335C343.07 331.638 342.013 327.711 342.186 327.608C342.359 327.505 344.232 326.538 346.349 325.46C354.773 321.171 359.3 312.501 359.42 300.431C359.495 292.878 359.231 291.822 355.296 283.931C349.749 272.808 339.643 261.167 329.156 253.822L326.854 252.209L330.414 247.545C344.032 229.705 350.974 208.573 350.991 184.91C351.001 170.637 349.339 162.476 343.506 148.17C337.197 132.692 331.687 124.699 317.33 110.194L304.16 96.887L307.296 93.194C309.02 91.162 314.062 85.675 318.5 81C335.86 62.712 344.114 37.26 336.468 25.592C332.249 19.153 320.205 18.059 309.95 23.183C299.056 28.627 278.277 51.396 267.751 69.425C265.479 73.316 263.531 76.637 263.423 76.803C263.315 76.97 259.238 76.309 254.363 75.334C243.057 73.073 215.748 73.049 206 75.292C202.425 76.115 199.335 76.633 199.134 76.444C198.698 76.036 201.167 68.194 207.303 50.5C212.845 34.515 213.806 27.898 211.295 23C208.565 17.677 199.261 15.517 190.258 18.117ZM121.575 38.176C121.344 38.904 120.888 41.119 120.561 43.097C120.143 45.627 119.23 47.03 117.483 47.826C114.328 49.264 114.344 50.524 117.548 52.623C118.949 53.541 120.743 55.841 121.533 57.734C123.311 61.988 124.937 61.613 127.397 56.382C128.44 54.163 130.237 51.932 131.391 51.424C134.943 49.859 134.584 47.142 130.605 45.479C127.973 44.38 126.839 43.158 126.215 40.75C125.358 37.443 122.337 35.767 121.575 38.176ZM125 50C125 50.55 124.55 51 124 51C123.45 51 123 50.55 123 50C123 49.45 123.45 49 124 49C124.55 49 125 49.45 125 50ZM61.594 78.616C61.168 79.726 62.656 81.849 66.34 85.389C69.971 88.878 72.907 93.043 75.423 98.272C78.548 104.77 79.526 106 81.57 106C85.053 106 84.728 103.183 80.258 94.646C73.858 82.424 63.535 73.558 61.594 78.616ZM371.093 84.772C366.268 89.512 363.122 93.676 361.037 98.085C359.367 101.613 358.001 105.047 358.001 105.715C358 106.788 360.965 109 362.404 109C362.698 109 364.451 105.728 366.298 101.73C370.008 93.701 374.753 87.696 379.209 85.392C381.501 84.207 382.056 83.314 381.811 81.201C381.272 76.551 378.533 77.463 371.093 84.772ZM380.667 127.667C380.3 128.033 380 129.818 380 131.633C380 136.541 377.267 141.461 373.818 142.763C370.135 144.153 370.335 146.915 374.254 148.793C377.401 150.301 379.133 153.075 379.935 157.891C380.61 161.941 383.54 164.312 385.013 162C385.539 161.175 385.976 159.403 385.985 158.062C386.006 154.638 389.907 149.292 393.708 147.478C395.472 146.636 397.198 145.489 397.544 144.929C398.557 143.29 396.198 141.26 392.467 140.56C388.736 139.86 386 136.133 386 131.75C386 128.204 382.675 125.658 380.667 127.667ZM1.51297 130.979C0.663973 132.353 2.24799 134.935 6.37699 138.906C9.35799 141.774 10.162 142.111 11.459 141.034C13.793 139.097 13.345 137.412 9.46698 133.533C6.01098 130.078 2.72297 129.022 1.51297 130.979ZM385.772 147.315L383.771 150.131L381.842 148.061C379.985 146.067 379.979 145.904 381.695 143.629C383.373 141.405 383.603 141.361 385.626 142.883L387.774 144.5L385.772 147.315ZM55.315 143.377C55.605 144.135 61.616 148.293 68.672 152.617C82.79 161.27 93.933 171.091 101.89 181.895C106.977 188.802 112.354 197.998 113.427 201.626C114.027 203.655 113.847 203.713 109.514 202.904C102.992 201.685 101.609 200.751 90.5 190.06C85 184.767 73.975 174.541 66 167.336C58.025 160.13 50.213 152.869 48.641 151.199C45.819 148.203 45.774 146 48.533 146C52.374 146 93.699 182.037 101.27 191.988C103.204 194.53 104.223 195.177 105.026 194.374C107.411 191.989 83.934 167.933 69 157.459C64.469 154.281 56.662 148.29 52.637 144.901C51.684 144.098 52.635 142 53.952 142C54.411 142 55.024 142.62 55.315 143.377ZM270.948 148.947C272.065 149.654 271.723 150.01 269.448 150.51C267.827 150.866 254.8 155.359 240.5 160.496C226.2 165.632 211.8 170.603 208.5 171.541C205.2 172.479 198.45 174.723 193.5 176.528C149.972 192.395 121.897 202.231 121.44 201.774C120.8 201.133 132.122 193.416 140.736 188.621C150.421 183.229 176.695 171 178.594 171C179.257 171 184.007 169.373 189.15 167.384C194.292 165.396 200.975 163.107 204 162.297C207.025 161.488 211.75 160.2 214.5 159.435C222.004 157.347 250.332 151.257 260 149.654C264.675 148.878 268.725 148.196 269 148.137C269.275 148.079 270.152 148.443 270.948 148.947ZM55.769 166.868C64.421 175.046 74.65 184.433 78.5 187.728C88.483 196.272 88.533 196.356 89.86 207C90.512 212.225 92.361 224.825 93.969 235C95.577 245.175 97.556 258.225 98.365 264C100.122 276.532 104.162 302.804 107.501 323.412C108.83 331.614 109.718 338.647 109.474 339.042C108.758 340.2 99.007 343.122 97.978 342.487C97.04 341.907 76.046 318.733 70.649 312.319C68.523 309.793 67.595 307.349 67.002 302.716C66.564 299.297 65.677 294.445 65.031 291.934C64.008 287.963 64.125 286.565 65.928 281.215C69.886 269.464 68.236 261.016 60.158 251.682C57.415 248.513 56 245.926 56 244.078C56 242.538 55.125 236.828 54.056 231.389C52.987 225.95 51.412 217.675 50.556 213C43.458 174.228 41.813 165.702 40.602 161.407C38.37 153.488 38.134 152 39.113 152C39.621 152 47.117 158.691 55.769 166.868ZM287.41 154.25C287.656 155.488 289.026 170.9 290.454 188.5C291.882 206.1 293.728 226.575 294.556 234C295.383 241.425 296.403 251.212 296.821 255.75L297.582 264H295.177C289.242 264 280.92 271.773 278.156 279.899C273.786 292.748 283.344 308.85 298.151 313.58L304.5 315.608L305.154 324.854C305.514 329.94 306.074 335.158 306.398 336.451C306.956 338.674 306.567 338.891 299.244 340.448C294.985 341.353 286.1 343.599 279.5 345.439C272.9 347.279 257.825 351.098 246 353.927C234.175 356.755 216.85 361.072 207.5 363.519C186.072 369.129 159.948 375.309 159.605 374.85C159.242 374.363 155.964 354.789 155.984 353.223C155.993 352.521 161.512 349.331 168.25 346.135C174.988 342.938 186.726 336.862 194.335 332.633L208.171 324.943L211.569 327.926C217.899 333.484 228.524 334.67 227.815 329.739C227.597 328.221 226.251 327.081 223.429 326.024C213.402 322.269 209.354 316.06 210.28 305.852C210.951 298.451 213.736 293.949 220.046 290.067C222.771 288.39 225 286.619 225 286.132C225 284.214 221.96 282.793 219.263 283.449C211.688 285.293 204.682 293.393 203.212 302.008L202.492 306.222L178.496 314.499C165.298 319.051 153.712 323.099 152.75 323.495C151.788 323.89 151 323.931 151 323.586C151 323.24 149.15 311.155 146.889 296.729C144.628 282.303 142.389 267.125 141.914 263C140.521 250.904 136.026 218.003 134.899 211.653C134.328 208.437 134.106 205.561 134.404 205.262C134.99 204.677 160.233 195.71 190 185.514C200.175 182.028 216.6 176.244 226.5 172.659C272.023 156.174 283.62 152.105 285.231 152.054C286.251 152.022 287.146 152.924 287.41 154.25ZM5.55396 193.25C5.34296 193.938 4.92198 196.3 4.61798 198.5C4.27898 200.955 3.28096 203.03 2.03296 203.872C-1.05704 205.957 -0.513028 208.564 3.23697 209.639C5.47897 210.282 7.15798 211.787 8.69898 214.534C11.964 220.355 14.361 219.884 15.024 213.291C15.42 209.351 16.249 207.349 18.426 205.077C20.782 202.618 21.082 201.804 20.078 200.594C19.403 199.781 17.428 198.977 15.689 198.808C13.394 198.584 11.974 197.618 10.513 195.289C8.43397 191.972 6.22396 191.064 5.55396 193.25ZM12 204.441C12 206.495 9.92998 207.504 8.95398 205.926C8.50198 205.194 8.35397 204.237 8.62497 203.798C9.46497 202.438 12 202.921 12 204.441ZM102.667 208.095C107.413 210.151 111.1 210.263 125 208.769C127.476 208.503 127.512 208.609 128.723 220C130.32 235.022 135.781 273.125 141.161 306.794C142.857 317.406 144.077 326.238 143.872 326.42C143.372 326.866 118.553 336 117.844 336C117.536 336 116.282 329.362 115.056 321.25C113.831 313.138 111.726 300.366 110.379 292.868C109.032 285.371 107.542 275.921 107.068 271.868C106.02 262.913 101.72 234.724 98.995 218.952C96.85 206.534 96.785 206 97.417 206C97.646 206 100.009 206.943 102.667 208.095ZM376.454 227.685C375.231 233.267 373.821 235.754 371.184 236.982C366.064 239.366 365.617 239.648 365.256 240.732C365.056 241.331 365.48 242.305 366.196 242.895C366.913 243.486 368.914 245.1 370.641 246.482C372.978 248.351 374.005 250.213 374.651 253.747C375.407 257.886 375.835 258.5 377.966 258.5C379.985 258.5 380.627 257.756 381.646 254.239C383.209 248.84 386.623 244 388.868 244C390.881 244 393 242.141 393 240.375C393 239.701 391.1 238.101 388.777 236.82C385.509 235.018 384.179 233.473 382.899 229.995C380.855 224.44 377.433 223.214 376.454 227.685ZM238.071 237.106C232.268 238.873 226.148 243.812 223.06 249.219C217.389 259.148 218.312 269.564 224.794 268.81C227.623 268.481 228.395 266.979 229.551 259.549C230.329 254.55 236.007 248.644 241.491 247.13C249.17 245.01 256.305 248.722 260.513 257.025C262.994 261.921 265.381 263.558 268.368 262.412C272.329 260.892 271.244 253.446 266.028 246.353C260.302 238.566 247.346 234.281 238.071 237.106ZM382.978 241.076C382.99 241.392 381.924 242.663 380.608 243.899L378.216 246.146L376.657 243.921C375.215 241.862 375.263 241.492 377.3 238.952L379.5 236.208L381.228 238.354C382.178 239.534 382.966 240.759 382.978 241.076ZM167.648 247.027C158.672 249.717 151.167 260.124 151.044 270.05C150.993 274.158 152.441 276 155.721 276C158.255 276 159.488 273.881 160.463 267.851C161.944 258.689 171.962 253.344 179.931 257.464C183.036 259.07 186.564 263.03 189.203 267.874C191.008 271.186 194.523 272.077 196.8 269.8C198.572 268.028 198.271 265.262 195.758 260.231C190.63 249.961 177.864 243.965 167.648 247.027ZM8.37998 280.452C7.56898 282.566 8.78997 284 11.4 284C12.655 284 15.743 284.62 18.263 285.379C22.947 286.788 25 286.163 25 283.326C25 279.749 9.66698 277.098 8.37998 280.452ZM120.843 305.153C118.621 306.618 122.085 308.486 129.587 309.868C134.281 310.733 136.612 310.788 137.348 310.052C138.059 309.341 138.072 308.672 137.385 307.985C135.826 306.426 122.399 304.127 120.843 305.153ZM203.728 316.465L204.792 319.931L198.361 323.465C191.574 327.196 190 327.663 190 325.944C190 325.363 188.6 323.609 186.889 322.046C184.095 319.494 183.968 319.142 185.639 318.581C186.663 318.237 190.425 316.885 194 315.575C202.533 312.449 202.494 312.446 203.728 316.465ZM129.578 319.32C122.785 321.491 120.419 323.456 123.275 324.552C125.495 325.404 138.5 320.733 138.5 319.083C138.5 316.893 137.048 316.931 129.578 319.32ZM180.316 322.125C183.383 323.705 187 327.137 187 328.469C187 329.085 182.985 331.557 178.077 333.962L169.154 338.336L166.369 335.027C164.838 333.207 162.241 330.901 160.599 329.902C158.449 328.595 158.017 327.934 159.056 327.545C160.737 326.916 177.348 321.187 177.816 321.075C177.989 321.034 179.114 321.506 180.316 322.125ZM51.181 331.699C51.561 333.675 67.22 343 70.158 343C74.303 343 71.316 339.501 63.161 334.801C54.378 329.739 50.616 328.765 51.181 331.699ZM161.599 335.666C163.47 337.536 165 339.435 165 339.885C165 340.548 141.888 352 140.55 352C140.337 352 139.171 350.395 137.958 348.433C136.746 346.471 134 343.705 131.857 342.286C129.713 340.868 128.169 339.498 128.425 339.242C128.681 338.986 134.18 336.856 140.644 334.51C154 329.662 155.688 329.755 161.599 335.666ZM126.298 343.351C129.905 344.858 136.304 351.587 135.74 353.279C135.54 353.879 130.454 356.459 124.438 359.012C105.099 367.217 102.305 369.193 100.039 376.271C97.44 384.386 101.89 393.006 109.405 394.416C120.114 396.425 127.736 383.077 118.758 378.038C116.228 376.618 115.895 376.66 113.9 378.656C111.512 381.044 112.067 383 115.132 383C117.576 383 117.336 385.759 114.75 387.388C112.091 389.062 109.556 386.954 109.197 382.767C108.797 378.109 112.154 374.147 117.177 373.347C120.237 372.86 121.284 373.193 123.427 375.336C126.924 378.833 127.085 387.111 123.75 392.01C119.905 397.66 116.551 399.5 110.099 399.5C105.336 399.5 103.711 399.017 100.671 396.698C95.247 392.561 93.553 388.706 93.553 380.5C93.553 370.678 97.432 364.371 106.237 359.879C108.307 358.823 110 357.365 110 356.639C110 355.912 107.684 354.057 104.853 352.517L99.707 349.716L109.603 345.929C120.824 341.636 121.824 341.482 126.298 343.351ZM99.867 354.375L104.234 356.66L101.303 357.874C98.799 358.911 97.653 358.779 93.436 356.968L88.5 354.848L91 353.459C94.276 351.64 94.729 351.687 99.867 354.375ZM149.769 364.892C150.435 369.783 151.255 374.501 151.592 375.378C152.843 378.638 141.941 380.245 134.899 377.838C133.03 377.2 130.025 374.976 128.222 372.897C126.419 370.818 124.057 368.835 122.972 368.491C119.998 367.547 120.585 366.445 124.75 365.156C126.813 364.517 132.55 362.216 137.5 360.042C142.45 357.868 146.963 356.069 147.529 356.045C148.095 356.02 149.103 360.001 149.769 364.892ZM90.033 359.517C92.765 360.901 95 362.31 95 362.649C95 363.122 92.781 367.113 90.5 370.743C90.148 371.304 78 366.751 78 366.058C78 365.088 83.839 357 84.54 357C84.829 357 87.302 358.133 90.033 359.517ZM83.897 373.042L89.5 375.085V381.085V387.086L85.5 386.427C79.234 385.395 78.239 384.468 77.004 378.517C75.959 373.486 76.191 371 77.706 371C78.03 371 80.816 371.919 83.897 373.042ZM45.688 389.187C37.943 392.946 35 394.874 35 396.187C35 397.184 35.394 398 35.876 398C36.777 398 56.552 389.085 58.706 387.707C60.145 386.788 59.298 384 57.581 384C56.918 384 51.566 386.334 45.688 389.187ZM88.483 391C90.066 391 91.447 392.092 92.834 394.443C95.26 398.555 94.087 398.416 87.25 393.784C82.94 390.863 81.7 389.287 84.582 390.393C85.452 390.727 87.207 391 88.483 391ZM70.978 411.155C66.831 417.571 65.961 421 68.479 421C70.032 421 79 408.436 79 406.261C79 405.567 78.09 405 76.978 405C75.599 405 73.692 406.956 70.978 411.155ZM397.339 459.56C396.986 460.479 397.769 462.223 399.248 463.81C404.753 469.716 406.34 475.763 404.481 483.757C402.98 490.215 403.192 491 406.438 491C409.558 491 411.138 486.955 411.185 478.847C411.228 471.478 409.568 466.856 405.022 461.677C401.637 457.823 398.353 456.918 397.339 459.56ZM373.605 460.587C373.201 461.64 374.5 463.636 377.46 466.513C379.916 468.9 382.221 472.031 382.582 473.472C383.25 476.134 382.66 484.187 381.419 489.329C380.779 491.983 380.915 492.138 383.618 491.829C387.327 491.406 389.996 486.338 389.998 479.718C390.001 473.392 387.814 468.428 382.744 463.25C378.44 458.853 374.69 457.76 373.605 460.587Z" fill="black"/>
</svg>
