<svg viewBox="0 0 378 490" fill="none" xmlns="http://www.w3.org/2000/svg">
<path d="M6 130L21 122L49 137.5L90.5 174.5L100 155L255.5 122L286 321L100 366L34 293L6 130Z" fill="white"/>
<path fill-rule="evenodd" clip-rule="evenodd" d="M157.234 1.98001C151.633 4.52201 142.912 12.827 136.935 21.308C128.493 33.29 119.744 57.009 118.312 71.795L117.702 78.091L112.101 81.762C104.41 86.803 90.475 101.009 84.704 109.692C78.243 119.412 73.317 130.368 70.709 140.819C69.517 145.594 68.41 149.698 68.248 149.94C68.086 150.182 65.827 148.346 63.227 145.861C54.688 137.699 39.596 126.715 27.779 120.062L22.058 116.842L16.259 120.421C9.683 124.48 8.88399 124.626 5.47299 122.39C2.32599 120.329 0 121.229 0 124.508C0 125.922 2.90001 142.474 6.44501 161.29C9.98901 180.105 14.06 201.979 15.49 209.898L18.09 224.296L15.659 226.898C10.815 232.083 9.55999 235.891 9.52899 245.5C9.50399 253.337 9.85699 255.226 12.261 260.121C15.157 266.019 20.85 271 24.695 271C27.047 271 27.285 271.686 29.022 283.441C29.667 287.809 30.597 292.439 31.088 293.731C31.579 295.022 41.998 307.202 54.24 320.796C66.483 334.39 79.875 349.297 84 353.923C94.059 365.202 98.771 367.484 112 367.482C119.91 367.481 123.822 366.842 135.377 363.667C143.009 361.57 149.58 360.224 149.978 360.677C150.377 361.13 151.497 364.425 152.468 368C156.986 384.639 169.364 400.861 186.778 412.966C190.232 415.366 192.932 417.609 192.778 417.951C192.625 418.293 189.849 424.767 186.609 432.339C181.986 443.146 180.382 445.977 179.155 445.506C172.276 442.866 163.448 444.343 160.016 448.707C157.638 451.73 157.349 457.841 159.397 461.8C161.089 465.072 170.584 474.163 177.698 479.323C185.241 484.795 195.686 490 199.122 490C204.279 490 207.503 487.403 218.646 474.276C224.611 467.249 233.038 457.792 237.374 453.259L245.258 445.019L249.879 448.392C252.42 450.247 259.505 454.267 265.621 457.326C271.738 460.385 277.026 463.625 277.371 464.526C277.717 465.427 278 469.677 278 473.971C278 484.163 279.628 486.512 286.662 486.473C293.481 486.434 298.424 483.708 306.617 475.468C314.482 467.558 318.431 461.468 319.446 455.685C320.365 450.447 317.815 445.522 308.448 434.443C298.984 423.25 293.348 414.919 292.044 410.198C290.935 406.181 290.455 407.127 300.922 392.699C306.819 384.571 311.255 374.306 313.416 363.792C316.406 349.245 314.953 325.009 310.444 314.212C309.117 311.036 309.163 310.885 311.785 309.746C317.365 307.324 321.055 303.633 324.117 297.414C327.069 291.418 327.223 290.545 326.819 282.091C326.433 274.029 325.971 272.282 322.221 264.713C317.746 255.684 308.88 245.174 300.066 238.453L295.092 234.659L297.972 231.379C306.026 222.206 313.917 205.06 317.043 189.941C318.86 181.155 319.118 177.36 318.674 166C318.029 149.523 315.21 138.295 308.026 123.582C301.743 110.716 295.618 102.711 282.4 90.091L271.804 79.974L280.727 70.237C292.87 56.986 297.217 50.942 302.155 40.443C305.746 32.806 306.424 30.317 306.798 23.399C307.307 13.971 305.69 9.34201 300.627 5.73001C298.056 3.89601 296.167 3.50201 290 3.51001C283.572 3.51801 281.733 3.94298 277.129 6.48498C262.159 14.748 244.013 37.859 236.482 58.25C234.594 63.365 234.277 63.523 228.993 61.98C215.991 58.185 184.247 56.768 170.75 59.38C167.038 60.099 164 60.488 164 60.245C164 60.002 166.874 53.885 170.387 46.651C178.355 30.246 180.323 24.233 180.422 16C180.516 8.195 178.704 3.416 174.909 1.453C170.953 -0.592999 162.337 -0.335991 157.234 1.98001ZM34.024 131.563C57.216 146.268 72.248 161.709 81.868 180.71C83.041 183.026 84 185.221 84 185.588C84 186.668 76.063 185.083 72.645 183.322C70.915 182.43 65 177.375 59.5 172.088C54 166.801 41.495 155.096 31.712 146.076C19.817 135.109 14.256 129.344 14.927 128.673C17.215 126.385 42.354 146.087 60.804 164.629C68.121 171.983 74.309 178 74.554 178C76.341 178 74.13 173.659 69.398 167.875C61.382 158.078 47.2 145.626 29.75 133.065C24.938 129.601 21 126.369 21 125.883C21 123.929 24.148 125.301 34.024 131.563ZM239.364 131.779C239.628 132.208 233.017 134.868 224.673 137.692C204.91 144.378 131.646 170.008 108.12 178.466C98.011 182.1 89.523 184.856 89.258 184.592C88.437 183.771 106.982 172.05 117.361 166.83C142.972 153.948 175.013 143.273 211 135.632C232.604 131.045 238.421 130.254 239.364 131.779ZM35.805 159C57.272 178.906 58.991 180.752 58.996 183.897C58.999 186.851 64.924 226.16 70.993 263.5C75.742 292.718 83.038 341.295 82.725 341.609C82.535 341.798 72.282 330.72 59.94 316.99L37.5 292.026L35.347 280.276C33.368 269.473 33.32 268.283 34.748 265.52C35.603 263.868 36.503 259.587 36.75 256.008C37.293 248.12 34.736 240.389 29.599 234.387C26.355 230.597 26.041 229.475 22.051 207.466C16.888 178.988 9.09301 138.151 8.32901 135.583C7.76701 133.693 7.794 133.693 10.189 135.583C11.526 136.637 23.053 147.175 35.805 159ZM255.401 138.25C255.672 140.038 256.155 144.425 256.476 148C257.301 157.201 263.833 220.736 265.006 230.97C265.544 235.662 265.987 241.094 265.992 243.043C266 246.397 265.762 246.649 261.51 247.786C251.727 250.403 245.376 259.908 246.19 270.716C247.032 281.885 253.288 289.953 265.471 295.582L272.701 298.922L273.795 309.711C274.396 315.645 274.576 320.811 274.194 321.192C273.567 321.816 254.889 326.578 158.641 350.648C142.219 354.755 128.636 357.969 128.457 357.791C128.279 357.612 126.095 343.299 123.605 325.983C118.839 292.846 109.667 230.528 105.578 203.504C104.247 194.707 103.235 187.463 103.329 187.408C105.477 186.139 251.997 135.125 253.705 135.052C254.367 135.023 255.131 136.462 255.401 138.25ZM71.623 190.162C77.072 192.578 88.388 193.085 93.286 191.133C95.419 190.283 96.177 190.313 96.523 191.261C96.948 192.427 102.758 231.466 115.642 319.738C118.712 340.768 120.941 358.71 120.596 359.609C120.064 360.996 118.64 361.18 111.165 360.822C103.803 360.47 101.585 359.947 97.625 357.626C95.02 356.1 92.516 353.872 92.061 352.675C91.605 351.479 88.69 333.625 85.582 313C82.475 292.375 77.461 259.75 74.44 240.5C67.715 197.639 66.263 188 66.535 188C66.651 188 68.94 188.973 71.623 190.162ZM196.2 197.2C193.877 199.523 195.039 201.831 200.282 205.311C207.351 210.003 215.157 212.168 223.669 211.798L230.5 211.5V208.523V205.546L223 205.4C214.636 205.238 209.006 203.495 202.368 199.015C197.182 195.516 197.725 195.675 196.2 197.2ZM151.175 207.791C145.894 214.099 140.211 217.979 133.827 219.635C127.627 221.243 127.599 221.268 128.399 224.453C129.207 227.672 131.86 227.766 139.712 224.854C144.209 223.187 147.133 221.056 152.817 215.306C156.842 211.234 159.967 207.401 159.762 206.787C159.558 206.173 158.459 205.053 157.321 204.297C155.409 203.028 154.939 203.296 151.175 207.791ZM205.748 214.427C192.153 219.278 186.165 234.389 192.787 247.136C199.983 260.988 218.468 263.972 228.474 252.898C233.372 247.475 235.005 243.305 234.978 236.282C234.917 220.221 220.247 209.253 205.748 214.427ZM217.199 220C220.187 220 226.595 226.915 228.022 231.678C231.232 242.393 223.642 252.988 212.75 252.996C210.138 252.998 208 252.795 208 252.545C208 252.295 209.088 251.003 210.418 249.673C217.74 242.351 214.555 228.985 204.686 225.616L200.872 224.314L203.665 222.484C206.803 220.428 211.821 219.007 213.832 219.604C214.564 219.822 216.08 220 217.199 220ZM146.707 224.473C138.314 227.685 132.776 234.295 131.431 242.702C130.495 248.562 131.528 252.944 135.127 258.378C143.354 270.799 160.271 272.315 169.804 261.485C179.957 249.951 177.119 232.284 164.025 225.513C159.535 223.191 151.342 222.7 146.707 224.473ZM164.022 233.786C172.022 241.787 171.226 253.377 162.257 259.471C159.653 261.241 157.198 262 154.081 262H149.626L152.333 259.175C160.081 251.088 156.227 237.397 145.589 235.215L141.5 234.377L145.5 232.233C148.114 230.831 151.36 230.073 154.868 230.044C159.772 230.004 160.562 230.327 164.022 233.786ZM181.275 273.654C172.618 276.719 164.261 286.762 162.484 296.235C161.916 299.26 162.144 300.007 163.926 300.96C166.767 302.481 167.739 301.683 169.072 296.733C170.505 291.411 174.97 285.204 179.663 282.011C182.537 280.056 184.884 279.444 190.623 279.154C200.205 278.67 205.421 281.037 210.156 288.018C213.752 293.321 214.604 293.741 217.483 291.636C219.283 290.32 219.254 290.11 216.694 285.741C213.599 280.459 209.121 276.43 203.5 273.867C198.56 271.615 187.336 271.508 181.275 273.654ZM364.537 441.605C363.069 443.074 363.265 443.564 366.905 447.513C371.979 453.018 373.669 458.762 372.048 465C370.162 472.256 370.251 473.465 372.692 473.812C375.949 474.275 378 469.525 378 461.518C378 454.108 376.196 448.869 372.197 444.664C368.169 440.428 366.415 439.728 364.537 441.605ZM341.25 441.662C338.899 442.611 339.995 445.799 343.352 447.78C347.129 450.009 351.012 457.028 350.978 461.566C350.966 463.18 350.115 466.353 349.087 468.617C346.966 473.287 347.631 475.33 351.113 474.837C354.441 474.367 357.4 465.545 356.478 458.841C355.682 453.056 351.161 445.678 346.771 443.002C343.315 440.895 343.213 440.87 341.25 441.662Z" fill="black"/>
</svg>
