<svg viewBox="0 0 375 491" fill="none" xmlns="http://www.w3.org/2000/svg">
<path d="M53.4377 165.834L67.4377 144.834L119.938 143.334L172.438 141.834L208.438 191.334L266.438 187.334L300.438 364.334L141.438 421.334L109.938 424.334L38.9377 357.334L5.43774 194.334L25.4377 191.334L53.4377 208.334V165.834Z" fill="white" stroke="black"/>
<path fill-rule="evenodd" clip-rule="evenodd" d="M138.122 2.71714C124.35 9.21553 112.175 26.3838 103.898 50.972C101.953 56.7475 99.8361 65.2848 99.1927 69.9426L98.0226 78.4116L91.5503 83.012C61.7334 104.209 44.5746 140.408 46.687 177.664C47.0302 183.715 47.9426 191.362 48.7147 194.66C49.4858 197.956 49.9958 200.776 49.8465 200.925C49.6972 201.073 47.9872 199.929 46.047 198.382C44.1078 196.834 38.8304 193.137 34.3217 190.165L26.1223 184.761L20.3267 187.934C13.513 191.664 12.8969 191.731 9.56157 189.098C6.44596 186.638 1.47929 186.435 0.593182 188.732C0.243559 189.639 1.58449 198.078 3.57467 207.487C5.56386 216.895 9.4362 235.172 12.1801 248.102L17.1691 271.611L13.8935 278.056C10.9652 283.818 10.6255 285.354 10.6896 292.551C10.7822 302.861 13.5835 310.528 19.0806 315.512C21.2391 317.47 24.1417 319.358 25.5301 319.709C26.9185 320.061 28.0536 320.548 28.0532 320.794C28.0527 321.039 29.6561 329.206 31.6167 338.941L35.1811 356.644L69.7738 390.969C101.287 422.237 104.811 425.427 109.364 426.809C121.373 430.455 125.165 429.987 145.372 422.363C151.426 420.08 161.513 416.447 167.789 414.291C180.294 409.996 179.343 409.924 186.139 415.675L188.89 418.002L182.661 432.207L176.433 446.412L172.882 445.654C160.079 442.916 151.136 449.373 153.822 459.416C156.289 468.642 185.135 490.412 194.918 490.429C199.837 490.438 203.346 487.607 214.088 474.964C219.687 468.374 228.031 459.079 232.632 454.308L240.997 445.635L245.657 448.969C248.221 450.804 255.392 454.85 261.593 457.963C269.269 461.814 273.131 464.33 273.694 465.846C274.149 467.07 274.297 470.656 274.022 473.816C273.237 482.846 276.352 487.595 283.052 487.577C290.777 487.557 307.636 473.58 313.099 462.669C318.22 452.438 317.968 451.875 296.541 425.756C292.818 421.218 286.896 410.265 286.899 407.922C286.899 407.277 289.909 402.782 293.587 397.934C300.829 388.385 305.719 378.858 308.625 368.633C310.09 363.48 310.493 358.404 310.576 344.096L310.68 326.056L315.859 321.23C323.299 314.296 326.375 307.466 326.91 296.697C327.469 285.428 325.945 278.496 320.515 267.6C315.132 256.8 304.556 245.077 291.162 235.068L282.222 228.386L286.647 220.244C296.362 202.364 299.91 186.779 299.047 165.768C297.85 136.645 286.346 112.868 262.578 90.3887L252.344 80.7104L261.473 70.8867C278.743 52.3046 287.792 35.6277 287.963 22.073C288.066 13.7972 285.986 9.30348 280.581 6.12181C275.522 3.14577 266.723 3.36901 259.615 6.65431C244.415 13.6801 225.495 36.5154 218.046 56.8221L215.335 64.2163L210.882 62.8673C197.215 58.7279 168.077 57.1668 152.27 59.7285C148.007 60.4199 144.518 60.7827 144.519 60.5367C144.519 60.2897 147.667 53.7373 151.514 45.9761C161.083 26.6652 163.542 15.9606 160.234 8.00265C156.982 0.180824 148.031 -1.95915 138.122 2.71714ZM169.304 147.958C176.066 149.979 183.294 156.613 186.458 163.7C189.367 170.215 189.587 182.708 186.9 188.732C184.319 194.52 177.844 200.902 171.99 203.427C164.845 206.509 154.664 206.527 147.8 203.469C139.636 199.832 136.835 196.325 142.102 196.335C146.833 196.343 151.287 189.976 151.299 183.187C151.307 178.765 148.43 173.386 144.901 171.226C141.198 168.958 138.757 168.855 134.996 170.808L132.169 172.276L132.872 169.048C136.498 152.386 152.714 142.999 169.304 147.958ZM88.0608 150.423C90.2822 151.898 93.1263 155.22 94.8577 158.358C97.6137 163.356 97.8307 164.496 97.7861 173.755C97.7305 185.281 95.9723 189.893 89.656 195.081C85.5029 198.491 77.6048 200.769 73.5016 199.739C69.8683 198.826 64.2761 196.135 64.2776 195.3C64.2782 194.934 65.6076 194.135 67.2317 193.526C73.4209 191.202 76.2469 181.116 72.7711 173.757C70.5744 169.106 65.0549 166.59 60.6789 168.245C59.2309 168.792 57.8645 169.057 57.6409 168.834C56.6686 167.857 59.8328 158.811 62.365 155.329C68.3176 147.142 79.8176 144.946 88.0608 150.423ZM41.4226 202.52C53.4273 211.065 67.7587 224.319 75.3526 233.896C80.3833 240.241 90.1695 255.77 90.1666 257.402C90.1658 257.864 88.9271 258.237 87.4151 258.231C80.1331 258.204 77.8221 256.543 57.11 236.453C16.7918 197.347 15.9254 196.457 17.5595 195.833C21.6293 194.28 61.3176 228.84 75.4185 246.215C78.2703 249.73 79.341 250.457 80.2826 249.52C83.4914 246.327 60.9039 223.06 35.2635 203.148C23.1972 193.776 23.942 194.477 24.7252 193.216C25.6429 191.735 28.544 193.353 41.4226 202.52ZM247.668 194.342C247.945 194.793 241.103 197.993 232.464 201.453C223.825 204.914 192.663 217.806 163.215 230.101C133.768 242.397 106.073 253.76 101.67 255.352L93.6651 258.247L97.6714 254.738C109.082 244.745 136.601 229.46 163.2 218.341C179.063 211.71 203.026 203.842 224.773 198.126C241.871 193.631 246.735 192.828 247.668 194.342ZM262.675 199.3C263.484 203.289 272.655 263.302 275.514 283.307C275.769 285.097 274.794 286.127 270.625 288.469C267.76 290.079 264.231 292.801 262.78 294.518C260.226 297.544 257.08 305.955 257.073 309.779C257.056 319.3 264.588 329.196 273.966 331.972C276.951 332.857 280.363 333.582 281.548 333.584C283.564 333.588 283.838 334.562 285.839 348.842C287.016 357.232 287.977 364.626 287.975 365.274C287.971 366.787 288.487 366.602 215.928 390.944C182.083 402.298 151.496 412.666 147.959 413.982C144.421 415.3 141.226 416.03 140.858 415.605C140.491 415.179 138.513 405.828 136.465 394.825C134.417 383.821 131.046 366.04 128.975 355.311C116.686 291.65 111.029 260.014 111.797 259.258C112.674 258.398 162.565 237.465 217.743 214.809C234.255 208.028 250.692 201.183 254.27 199.595C257.848 198.008 261.077 196.674 261.447 196.63C261.815 196.586 262.367 197.788 262.675 199.3ZM41.9638 230.926C61.5949 249.927 65.1729 253.83 65.1686 256.244C65.1658 257.814 65.5976 261.259 66.1279 263.9C66.6582 266.54 70.0308 284.681 73.6239 304.212C77.2159 323.744 82.8115 353.63 86.0571 370.627C89.3028 387.622 91.7526 401.735 91.5001 401.985C90.9421 402.541 42.8054 355.343 41.7293 353.185C41.3088 352.343 39.4511 344.299 37.6002 335.311L34.2344 318.969L36.6518 315.42C38.7783 312.298 39.4139 309.734 39.4449 304.151C39.4494 303.326 39.1624 300.548 38.8079 297.978L38.1623 293.304L51.6896 302.691C59.394 308.037 65.8312 311.843 66.6438 311.533C67.4283 311.233 68.0725 310.009 68.0746 308.813C68.0776 307.15 64.6588 304.216 53.5399 296.341C45.544 290.678 38.2401 286.163 37.3078 286.308C36.3645 286.457 33.2355 284.232 30.2428 281.287L24.8712 276L17.0877 238.798C12.8063 218.337 9.29593 201.202 9.28679 200.72C9.26293 199.521 14.9156 204.746 41.9638 230.926ZM124.232 220.92C124.226 224.182 124.005 224.476 121.976 223.929C120.739 223.595 115.341 223.308 109.978 223.291L100.228 223.26L100.233 220.26L100.238 217.26L112.238 217.281L124.238 217.303L124.232 220.92ZM28.5459 247.632C28.2275 248.456 28.2061 249.755 28.4968 250.519C29.3269 252.693 56.9321 272.182 59.1871 272.186C62.0361 272.192 62.7931 269.387 60.5381 267.181C57.126 263.843 31.8196 246.137 30.4566 246.135C29.7236 246.134 28.8634 246.807 28.5459 247.632ZM213.672 254.363C196.308 262.382 194.47 288.521 210.603 298.015C216.907 301.724 222.35 302.802 228.344 301.527C235.659 299.972 241.453 295.533 244.645 289.037C246.99 284.265 247.294 282.595 246.981 276.182C246.665 269.688 246.188 268.155 242.967 263.286C236.5 253.506 223.862 249.657 213.672 254.363ZM232.246 261.776C239.905 266.957 242.709 279.389 237.841 286.584C234.3 291.818 229.598 294.491 223.952 294.481C221.283 294.476 219.101 294.164 219.102 293.786C219.102 293.409 220.042 292.106 221.189 290.889C227.724 283.958 221.251 269.907 211.64 270.162C207.562 270.271 207.379 269.694 210.312 265.979C215.667 259.197 225.616 257.29 232.246 261.776ZM80.064 263.844C85.8538 265.667 92.5539 265.613 99.0723 263.69C101.978 262.833 104.46 262.274 104.589 262.45C104.717 262.625 107.841 278.973 111.532 298.78C115.222 318.587 121.525 352.067 125.539 373.181C129.552 394.294 132.958 413.184 133.107 415.156C133.342 418.263 132.979 418.942 130.376 420.248C126.146 422.37 115.187 421.971 109.705 419.494C101.88 415.96 101.141 414.462 97.4373 394.63C84.0434 322.913 73.071 264.423 72.7207 262.882C72.4062 261.492 72.7087 261.221 73.9818 261.754C74.9031 262.141 77.6404 263.08 80.064 263.844ZM33.3017 267.387C30.5247 270.154 32.371 272.201 46.6492 282.183C54.6492 287.775 61.9314 292.18 62.8817 292.001C63.83 291.822 64.744 290.72 64.913 289.552C65.1621 287.835 62.6471 285.597 51.8049 277.888C35.4157 266.235 34.8053 265.889 33.3017 267.387ZM150.642 271.197C136.727 277.806 132.036 296.651 141.16 309.293C147.421 317.969 160.57 321.201 170.378 316.474C187.273 308.332 188.91 283.949 173.302 272.937C169.662 270.369 167.939 269.869 161.832 269.606C156.364 269.37 153.688 269.75 150.642 271.197ZM169.231 278.641C173.436 281.446 177.111 288.522 177.102 293.793C177.085 303.233 169.224 311.383 160.151 311.367L155.907 311.359L157.994 307.995C163.564 299.018 156.942 285.157 147.864 286.794C144.11 287.471 144.306 285.495 148.373 281.674C153.08 277.251 155.023 276.422 160.735 276.398C164.399 276.384 166.794 277.016 169.231 278.641ZM40.42 309.69C39.566 311.905 41.965 314.168 55.4816 323.893C68.2942 333.111 71.5289 334.395 71.5363 330.266C71.5398 328.279 69.0229 325.99 58.0582 318.009C44.6186 308.228 41.5442 306.778 40.42 309.69ZM42.7213 328.542C42.428 329.304 42.8122 330.822 43.5763 331.917C45.0834 334.077 71.3883 353.208 72.8543 353.211C74.6283 353.214 76.1764 350.354 75.2753 348.736C73.9924 346.435 46.8738 327.165 44.9128 327.161C44.0008 327.159 43.0157 327.781 42.7213 328.542ZM203.527 335.33C189.153 339.508 187.485 340.22 187.18 342.314C186.526 346.814 188.197 346.776 205.661 341.888C214.935 339.293 222.92 336.823 223.403 336.399C224.877 335.104 223.177 330.469 221.267 330.578C220.315 330.633 212.332 332.771 203.527 335.33ZM359.914 442.578C359.116 444.062 359.524 445.008 361.962 447.332C368.4 453.47 370.579 462.403 367.217 468.877C365.353 472.467 365.934 474.735 368.721 474.74C373.797 474.749 375.918 460.321 372.112 451.673C370.284 447.522 363.911 440.731 361.839 440.728C361.328 440.727 360.462 441.559 359.914 442.578ZM336.502 443.349C335.034 444.812 336 446.625 339.356 448.707C345.958 452.803 348.778 462.977 345.215 469.838C343.264 473.593 344.008 475.944 347.013 475.521C352.4 474.763 354.277 460.157 350.032 452.015C346.655 445.535 339.138 440.721 336.502 443.349Z" fill="black"/>
<path d="M37.9377 293.334C36.9377 288.834 34.4377 284.501 32.9377 283.334L24.9377 236.334L60.9377 251.834L75.9377 354.834L58.9377 349.334L40.4377 335.834C39.7711 329.667 38.4377 317.134 38.4377 316.334C38.4377 315.534 39.1044 312.334 39.4377 310.834C39.4377 310.167 39.0397 307.814 39.4377 303.834C39.9377 298.834 38.3822 295.334 37.9377 293.334Z" fill="white"/>
</svg>
