<svg viewBox="0 0 380 490" fill="none" xmlns="http://www.w3.org/2000/svg">
<path d="M207.5 128L250.5 132H264L282 324L114 366L96.5 361L34.5 292.5L6.5 128L24 121L68 154L90.5 173L207.5 128Z" fill="white"/>
<path fill-rule="evenodd" clip-rule="evenodd" d="M158.234 1.92498C141.125 9.91098 123.18 41.659 119.124 71.12C118.421 76.228 117.584 78.808 116.407 79.5C111.695 82.27 99.861 92.329 95.144 97.573C82.747 111.356 75.083 126.048 70.02 145.736L68.93 149.973L60.715 142.867C52.39 135.667 29.589 119.908 24.991 118.177C22.904 117.391 21.413 117.88 16.11 121.086L9.738 124.939L7.23401 122.97C4.30501 120.665 2.66699 120.492 1.14499 122.325C0.332988 123.304 0.706996 127.033 2.573 136.575C3.964 143.684 8.213 166.321 12.017 186.881L18.932 224.261L15.584 228.172C11.203 233.292 9.62001 239.21 10.213 248.254C10.982 259.984 16.168 268.25 24.481 270.994C27.7 272.056 27.883 272.393 28.999 279.301C31.622 295.546 29.984 293.045 60 326.624C75.125 343.544 88.944 358.828 90.709 360.588C94.888 364.756 104.488 368 112.643 368C116.726 368 124.299 366.593 134.459 363.948C143.018 361.719 150.467 360.17 151.011 360.507C151.555 360.843 152 361.979 152 363.03C152 366.787 157.881 380.966 162.222 387.674C167.916 396.473 174.546 403.223 185.058 410.923C189.701 414.324 193.5 417.42 193.5 417.803C193.5 418.187 190.831 424.705 187.569 432.29L181.637 446.079L178.569 445.29C173.602 444.012 166.321 444.56 163.472 446.426C159.5 449.029 157.694 454.15 159.016 459.06C160.911 466.097 177.416 480.354 191.5 487.117C202.644 492.469 205.299 491.283 219.183 474.752C224.843 468.013 233.229 458.59 237.82 453.811L246.167 445.123L250.833 448.449C253.4 450.279 260.505 454.276 266.621 457.332C272.738 460.388 278.026 463.625 278.371 464.526C278.717 465.427 279 469.677 279 473.971C279 484.163 280.628 486.512 287.662 486.473C294.402 486.435 299.343 483.712 307.58 475.498C316.263 466.838 320.104 460.575 320.282 454.784C320.46 449.005 318.364 445.12 309.34 434.5C300.316 423.881 294.402 415.074 292.877 409.985C291.809 406.419 291.932 406.118 297.334 399.126C307.109 386.475 311.542 377.178 314.469 363.185C317.335 349.489 316.043 327.572 311.649 315.345L310.156 311.19L314.828 308.803C320.12 306.099 325.308 299.273 327.097 292.657C328.479 287.549 327.777 275.978 325.736 270.231C322.13 260.071 312.178 247.238 301.546 239.036L295.919 234.694L298.406 232.097C302.683 227.63 310.681 213.358 313.915 204.421C323.6 177.655 321.647 149.174 308.271 122.102C302.897 111.227 294.829 100.881 283.106 89.833L272.847 80.166L281.212 70.833C293.474 57.151 296.384 53.318 300.827 45C313.873 20.578 308.718 1.61499 289.468 3.21099C272.498 4.61799 248.956 28.986 238.841 55.616L235.758 63.732L231.335 62.4C215.085 57.51 179.151 56.543 165.664 60.633C164.237 61.065 164.948 59.107 168.854 51.845C182.007 27.392 185.039 11.552 178.061 3.74199C175.571 0.954992 174.564 0.573998 168.882 0.272998C164.071 0.0179979 161.45 0.424975 158.234 1.92498ZM33.412 130.642C49.837 140.838 61.75 150.973 71.066 162.676C77.135 170.301 85.611 184.722 84.611 185.723C84.282 186.052 81.534 185.766 78.504 185.088C73.201 183.901 71.918 182.853 43.92 156.806C24.907 139.118 15.183 129.417 15.825 128.775C18.675 125.925 61.497 161.566 71.87 175.421C73.485 177.577 74.351 178.049 75.177 177.223C76.537 175.863 75.047 173.379 68.317 165.778C61.047 157.568 48.694 146.683 34.75 136.2C27.738 130.927 22 126.251 22 125.807C22 124.082 24.663 125.21 33.412 130.642ZM240.354 131.688C240.733 132.066 231.02 135.828 218.771 140.046C180.815 153.12 145.624 165.441 117.734 175.422C103.013 180.69 90.723 185 90.425 185C87.305 185 104.445 173.797 117.861 167.068C146.185 152.86 188.322 139.434 224.5 133.09C236.869 130.921 239.367 130.7 240.354 131.688ZM37 159.525L58.5 179.323L59.743 186.911C61.183 195.705 75.309 285.934 80.418 318.971C82.328 331.33 83.742 341.592 83.558 341.775C83.375 341.959 73.121 330.887 60.773 317.171L38.321 292.233L36.082 280.219C33.917 268.606 33.901 268.094 35.614 264.853C36.821 262.568 37.385 259.27 37.385 254.5C37.385 246.616 35.172 240.53 29.869 233.835C27.229 230.501 26.378 228.037 24.801 219.164C21.925 202.978 9.98799 138.843 9.32199 136C8.74199 133.524 8.76801 133.53 12.118 136.614C13.978 138.327 25.175 148.637 37 159.525ZM256.422 139.75C257.539 148.441 267 241.944 267 244.284C267 246.162 266.183 246.804 262.556 247.774C249.279 251.325 242.945 267.47 249.595 280.814C252.681 287.007 258.239 291.813 267.122 295.97L273.631 299.016L274.799 310.191C275.442 316.337 275.862 321.435 275.734 321.519C274.638 322.239 129.795 358.128 129.435 357.768C129.175 357.509 125.837 335.967 122.016 309.898C118.195 283.829 112.588 245.652 109.557 225.06C106.526 204.468 104.148 187.537 104.273 187.435C104.745 187.048 192.468 156.251 237.5 140.662C246.3 137.615 254.02 135.095 254.656 135.061C255.298 135.027 256.084 137.113 256.422 139.75ZM83.945 192.263C88.1 192.261 92.754 191.756 94.286 191.141C96.425 190.282 97.163 190.31 97.468 191.261C97.85 192.451 106.596 251.571 117.094 323.914C119.841 342.842 121.857 358.929 121.575 359.664C121.208 360.621 118.858 360.997 113.281 360.99C104.481 360.979 96.3 357.99 93.689 353.831C92.883 352.549 91.47 346.325 90.548 340C89.002 329.402 68.699 198.588 67.466 191.289L66.924 188.079L71.657 190.173C75.103 191.697 78.446 192.266 83.945 192.263ZM208.137 196.308C202.781 198.343 196.96 203.89 194.392 209.406C185.642 228.197 201.353 249.12 221.043 244.897C242.681 240.257 246.89 209.81 227.467 198.428C222.195 195.338 213.267 194.359 208.137 196.308ZM225.72 205.6C232.522 210.788 234.915 221.327 231.023 228.956C228.15 234.587 223.775 237.316 216.815 237.82C213.617 238.051 211 237.914 211 237.515C211 237.115 212.125 235.452 213.5 233.818C218.07 228.387 216.068 217.247 209.932 213.964C208.736 213.324 206.237 212.8 204.379 212.8C202.521 212.8 201 212.43 201 211.977C201 210.304 206.497 204.691 209.45 203.348C213.943 201.305 221.451 202.344 225.72 205.6ZM144.615 210.472C139.577 212.268 133.269 218.36 130.802 223.814C128.171 229.629 128.137 239.266 130.728 245.104C133.083 250.409 139.373 256.308 144.468 257.99C150.486 259.975 160.042 258.9 164.891 255.691C173.754 249.825 178.085 239.542 175.973 229.372C172.841 214.283 158.379 205.567 144.615 210.472ZM157.685 217.064C161.134 218.367 165.695 222.575 167.589 226.2C169.782 230.397 169.355 238.816 166.713 243.48C163.893 248.46 157.937 251.962 152.25 251.984C149.913 251.993 148 251.732 148 251.404C148 251.077 148.836 249.614 149.858 248.154C153.6 242.807 153.085 235.535 148.593 230.313C146.872 228.313 145.031 227.479 141.412 227.061L136.545 226.5L140.391 222.248C145.467 216.636 151.648 214.783 157.685 217.064ZM210.5 274.664C209.4 274.901 202.2 276.45 194.5 278.107C175.502 282.193 176.834 281.637 177.193 285.335C177.362 287.076 177.95 288.448 178.5 288.385C180.026 288.208 214.464 280.73 214.757 280.511C215.285 280.117 213.725 274.005 213.125 274.116C212.781 274.18 211.6 274.426 210.5 274.664ZM342.25 441.731C339.866 442.562 341.015 445.846 344.429 447.956C348.27 450.33 352.012 457.075 351.978 461.566C351.966 463.18 351.14 466.3 350.142 468.5C347.987 473.25 348.345 475 351.469 475C357.062 475 359.308 460.399 355.064 451.633C352.147 445.606 345.614 440.557 342.25 441.731ZM364.489 442.017C364.143 442.577 365.692 445.115 367.929 447.657C373.143 453.58 374.694 458.887 372.997 465C370.505 473.979 370.506 474 373.434 474C375.533 474 376.411 473.261 377.551 470.532C380.87 462.589 378.42 450.202 372.254 443.75C369.619 440.993 365.667 440.111 364.489 442.017Z" fill="black"/>
</svg>
