<svg viewBox="0 0 380 491" fill="none" xmlns="http://www.w3.org/2000/svg">
<path d="M97 171.5L24.5 122.5L10 129.5L5.5 126.5L34 293L73 337L105 368.5L281.5 325L258.5 133L224 122.5L97 171.5Z" fill="white" stroke="black"/>
<path fill-rule="evenodd" clip-rule="evenodd" d="M157.372 3.40703C151.526 6.12903 142.865 14.483 137.484 22.59C129.307 34.909 121.884 54.694 119.547 70.398C118.696 76.112 117.692 79.593 116.74 80.125C108.06 84.983 93.066 99.621 85.747 110.381C80.239 118.48 74.532 130.99 71.999 140.518C70.832 144.908 69.663 149.143 69.401 149.929C69.066 150.935 67.384 149.872 63.713 146.332C60.846 143.567 55.77 139.249 52.433 136.735C44.744 130.943 24.897 118 23.703 118C23.207 118 20.098 119.668 16.795 121.707C10.852 125.376 10.757 125.397 7.81297 123.707C6.17697 122.768 4.21499 122 3.45399 122C1.11699 122 -0.0350156 125.392 1.03498 129.122C1.85198 131.97 9.47198 172.426 17.099 214.404L19.08 225.307L16.654 227.904C11.838 233.059 10.576 236.894 10.537 246.5C10.505 254.346 10.854 256.221 13.261 261.121C16.183 267.071 21.857 272 25.785 272C28.218 272 28.352 272.388 30.066 284.441C30.687 288.809 31.595 293.434 32.083 294.719C32.572 296.004 37.563 302.105 43.175 308.278C48.787 314.45 60.381 327.375 68.94 337C91.605 362.49 93.591 364.382 100.288 366.859C106.515 369.163 118.768 369.799 123.35 368.057C126.863 366.721 148.786 361 150.392 361C151.218 361 152.221 363.329 153.024 367.114C155.318 377.921 162.71 390.762 173.171 402.111C175.002 404.097 180.395 408.545 185.154 411.996L193.809 418.27L189.293 428.885C186.809 434.723 184.077 441.207 183.22 443.292C182.083 446.062 181.237 446.916 180.082 446.46C179.212 446.116 176.22 445.593 173.434 445.297C162.234 444.106 155.416 453.168 160.342 462.695C163.943 469.658 187.146 487.465 196.122 490.155C203.56 492.383 206.249 490.842 217.325 478C222.78 471.675 231.493 461.891 236.688 456.258L246.132 446.015L252.193 450.131C255.527 452.395 262.472 456.245 267.626 458.687C272.78 461.128 277.448 463.968 277.998 464.997C278.549 466.026 279 470.519 279 474.98C279 482.362 279.231 483.322 281.576 485.667C283.747 487.838 284.815 488.168 288.366 487.768C290.684 487.507 294.362 486.469 296.54 485.463C301.445 483.196 315.149 469.588 317.84 464.313C323.239 453.73 321.725 449.274 307 432.407C300.163 424.577 294.991 416.62 293.486 411.62C292.165 407.229 292.204 407.022 295.077 403.308C311.929 381.521 316.61 367.457 315.779 341.106C315.395 328.936 314.901 325.282 312.817 319.197L310.317 311.894L313.514 310.559C315.272 309.824 318.266 307.667 320.168 305.765C325.496 300.437 327.387 295.629 327.82 286.306C328.28 276.403 326.021 268.576 320.076 259.478C316.402 253.854 306.226 243.288 299.542 238.156C297.414 236.522 296.852 235.515 297.542 234.57C307.83 220.464 313.526 209.235 317.202 195.812C319.18 188.592 319.473 185.201 319.432 170C319.389 153.869 319.171 151.796 316.651 143.5C313.077 131.737 305.431 116.141 299.246 108C296.53 104.425 289.484 96.896 283.589 91.268L272.87 81.037L282.602 70.268C295.197 56.333 297.362 53.326 302.601 42.5C307.344 32.698 308.96 25.12 307.872 17.776C306.508 8.55801 300.824 4.00001 290.692 4.00001C273.632 4.00001 248.424 30.189 237.512 59.25C235.645 64.222 234.838 64.649 230.462 62.985C220.83 59.324 185.344 57.749 171.75 60.38C168.038 61.099 165 61.453 165 61.168C165 60.883 167.693 55.216 170.984 48.575C180.761 28.848 183.49 18.184 181.06 9.20402C178.836 0.980024 168.183 -1.62697 157.372 3.40703ZM34.862 132.609C55.937 145.714 71.037 160.346 79.675 176.033C82.522 181.203 84.624 185.799 84.347 186.247C83.714 187.271 77.34 186.158 73.908 184.423C72.483 183.702 66.179 178.25 59.9 172.306C53.621 166.363 40.936 154.561 31.711 146.081C20.635 135.899 15.274 130.326 15.929 129.671C18.545 127.055 55.242 156.732 68.578 172.25C71.769 175.962 74.744 179 75.19 179C77.242 179 75.571 175.245 70.918 169.397C63.774 160.419 51.771 149.608 35.807 137.774C24.13 129.117 20.918 126 23.675 126C23.982 126 29.016 128.974 34.862 132.609ZM240.434 132.893C240.738 133.385 239.752 134.091 238.243 134.463C235.262 135.199 143.913 166.873 128.166 172.631C106.232 180.652 90.63 185.963 90.216 185.55C89.436 184.769 108.207 172.937 118.201 167.91C146.854 153.498 188.021 140.458 226.5 133.604C236.142 131.887 239.7 131.705 240.434 132.893ZM36.314 159.473C58.34 179.906 60 181.686 60 184.87C60 187.84 65.803 226.38 71.99 264.5C76.796 294.109 84.019 342.314 83.699 342.635C83.504 342.829 80.689 339.954 77.442 336.244C72.558 330.664 50.598 306.175 41.179 295.804C39.287 293.722 38.218 290.424 36.477 281.304C34.364 270.235 34.325 269.313 35.853 266.5C36.997 264.394 37.482 260.968 37.479 255C37.476 245.795 36.214 242.282 30.211 234.753C28.568 232.693 26.934 229.318 26.58 227.253C25.833 222.905 19.43 187.889 18.03 180.5C14.34 161.026 9.82197 138.191 9.34797 136.616C8.83897 134.926 8.97799 134.875 10.704 136.116C11.762 136.877 23.286 147.388 36.314 159.473ZM256.395 139.25C256.662 141.038 257.585 149.7 258.446 158.5C259.307 167.3 261.584 189.729 263.506 208.342C267.675 248.719 267.648 248 264.96 248C261.751 248 255.516 251.599 252.474 255.206C245.985 262.902 245.159 271.997 250.06 281.804C253.58 288.848 258.047 292.786 267.247 296.958L273.619 299.847L274.748 310.674C275.369 316.628 275.567 321.808 275.188 322.184C274.015 323.349 130.541 358.858 129.828 358.159C129.459 357.797 126.865 341.75 124.065 322.5C121.265 303.25 117.404 276.925 115.484 264C113.564 251.075 110.409 229.475 108.472 216C106.536 202.525 104.743 190.825 104.489 190C104.131 188.835 110.781 186.101 134.264 177.76C194.608 156.326 252.933 136.128 254.705 136.052C255.367 136.023 256.128 137.462 256.395 139.25ZM81 193.44C83.648 193.796 87.967 193.45 91.492 192.598C94.787 191.802 97.547 191.229 97.624 191.325C97.701 191.421 99.884 206.35 102.476 224.5C105.067 242.65 108.912 268.75 111.02 282.5C120.342 343.313 122.461 360.096 120.936 361.061C116.709 363.735 100.991 361.059 95.715 356.766C93.086 354.627 92.794 353.546 90.516 337.5C89.189 328.15 86.958 313.3 85.559 304.5C70.281 208.413 68 193.722 68 191.433V189.112L72.25 190.974C74.587 191.997 78.525 193.107 81 193.44ZM205.566 221.592C194.603 222.898 185.191 224.409 184.65 224.95C184.006 225.594 184.091 227.828 184.897 231.429C185.819 235.549 187.248 238.171 190.606 241.906C202.194 254.796 222.258 253.724 231.68 239.712C235.21 234.463 237.622 225.615 236.616 221.607C236.011 219.194 235.573 219.008 230.731 219.109C227.854 219.169 216.53 220.286 205.566 221.592ZM156 227.574C150.225 228.3 141.113 229.418 135.75 230.059L126 231.225V235.297C126 243.799 131.645 251.088 141.87 255.788C146.263 257.807 148.276 258.162 152.942 257.739C166.784 256.484 175.928 246.366 175.978 232.25L176 226L171.25 226.128C168.637 226.198 161.775 226.849 156 227.574ZM206.823 231.388C208.407 235.768 212.655 239.981 216.202 240.69C221.954 241.841 218.104 243.961 210.218 243.986C202.423 244.011 196.264 240.394 192.909 233.82L191.031 230.14L196.765 229.494C199.919 229.138 202.95 228.692 203.5 228.502C205.407 227.845 205.604 228.017 206.823 231.388ZM147.998 240.495C149.414 243.421 151.563 245.818 154.153 247.363C158.669 250.056 157.782 251 150.734 251C143.206 251 135.602 245.818 133.584 239.313C132.98 237.367 133.323 237.083 136.703 236.731C145.93 235.771 145.669 235.684 147.998 240.495ZM223 251.599C221.625 252.37 218.813 253.283 216.75 253.628C213.647 254.147 213 254.665 213 256.628C213 259.617 215.065 259.698 222.717 257.008C229.616 254.583 230.747 253.605 229.035 251.542C227.515 249.711 226.346 249.721 223 251.599ZM134.725 258.609C131.797 261.536 137.891 265 145.968 265C150.171 265 151 264.7 151 263.177C151 261.755 149.733 261.103 145.25 260.217C142.087 259.592 138.589 258.812 137.475 258.483C136.361 258.153 135.123 258.21 134.725 258.609ZM177.821 272.353C172.174 273.924 166.884 277.797 162.932 283.253C159.375 288.163 159.29 289.356 162.4 290.772C164.585 291.768 165.173 291.423 168.967 286.924C171.259 284.206 174.342 281.371 175.817 280.625C183.924 276.523 193.99 278.312 200.982 285.098C204.884 288.885 205.418 289.114 207.613 287.94C208.926 287.237 210 286.278 210 285.809C210 283.93 201.65 276.056 197.678 274.189C191.977 271.509 183.626 270.737 177.821 272.353ZM366.25 441.718C364.091 442.493 364.876 445.12 368.446 449.072C373.078 454.198 374.65 460.054 372.991 466C371.069 472.89 371.194 474.456 373.692 474.812C378.322 475.471 381.123 464.373 378.555 455.541C376.36 447.99 369.681 440.488 366.25 441.718ZM341.667 442.667C340.042 444.292 341.279 446.967 344.546 448.895C348.39 451.163 351.941 457.559 351.978 462.282C351.99 463.812 351.325 466.68 350.5 468.654C348.269 473.994 348.535 476 351.474 476C357.282 476 359.719 460.858 355.272 452.405C351.632 445.487 344.18 440.153 341.667 442.667Z" fill="black"/>
</svg>
